<svg width="242" height="242" viewBox="0 0 242 242" fill="none" xmlns="http://www.w3.org/2000/svg">
    <rect width="242" height="242" fill="#D9D9D9"/>
    <path d="M107.291 109.364V121H105.95V109.364H107.291ZM113.292 121.182C112.504 121.182 111.813 120.994 111.218 120.619C110.627 120.244 110.165 119.72 109.832 119.045C109.502 118.371 109.338 117.583 109.338 116.682C109.338 115.773 109.502 114.979 109.832 114.301C110.165 113.623 110.627 113.097 111.218 112.722C111.813 112.347 112.504 112.159 113.292 112.159C114.08 112.159 114.769 112.347 115.36 112.722C115.955 113.097 116.417 113.623 116.747 114.301C117.08 114.979 117.247 115.773 117.247 116.682C117.247 117.583 117.08 118.371 116.747 119.045C116.417 119.72 115.955 120.244 115.36 120.619C114.769 120.994 114.08 121.182 113.292 121.182ZM113.292 119.977C113.891 119.977 114.383 119.824 114.769 119.517C115.156 119.21 115.442 118.807 115.627 118.307C115.813 117.807 115.906 117.265 115.906 116.682C115.906 116.098 115.813 115.555 115.627 115.051C115.442 114.547 115.156 114.14 114.769 113.83C114.383 113.519 113.891 113.364 113.292 113.364C112.694 113.364 112.201 113.519 111.815 113.83C111.429 114.14 111.143 114.547 110.957 115.051C110.771 115.555 110.679 116.098 110.679 116.682C110.679 117.265 110.771 117.807 110.957 118.307C111.143 118.807 111.429 119.21 111.815 119.517C112.201 119.824 112.694 119.977 113.292 119.977ZM122.816 124.455C122.169 124.455 121.612 124.371 121.146 124.205C120.68 124.042 120.292 123.826 119.981 123.557C119.674 123.292 119.43 123.008 119.248 122.705L120.316 121.955C120.438 122.114 120.591 122.295 120.777 122.5C120.962 122.708 121.216 122.888 121.538 123.04C121.864 123.195 122.29 123.273 122.816 123.273C123.521 123.273 124.102 123.102 124.561 122.761C125.019 122.42 125.248 121.886 125.248 121.159V119.386H125.134C125.036 119.545 124.896 119.742 124.714 119.977C124.536 120.208 124.278 120.415 123.941 120.597C123.608 120.775 123.157 120.864 122.589 120.864C121.884 120.864 121.252 120.697 120.691 120.364C120.134 120.03 119.693 119.545 119.367 118.909C119.045 118.273 118.884 117.5 118.884 116.591C118.884 115.697 119.042 114.919 119.356 114.256C119.67 113.589 120.108 113.074 120.669 112.71C121.229 112.343 121.877 112.159 122.612 112.159C123.18 112.159 123.631 112.254 123.964 112.443C124.301 112.629 124.559 112.841 124.737 113.08C124.919 113.314 125.059 113.508 125.157 113.659H125.294V112.273H126.589V121.25C126.589 122 126.419 122.61 126.078 123.08C125.741 123.553 125.286 123.9 124.714 124.119C124.146 124.343 123.513 124.455 122.816 124.455ZM122.771 119.659C123.309 119.659 123.763 119.536 124.134 119.29C124.506 119.044 124.788 118.689 124.981 118.227C125.174 117.765 125.271 117.212 125.271 116.568C125.271 115.939 125.176 115.384 124.987 114.903C124.797 114.422 124.517 114.045 124.146 113.773C123.775 113.5 123.316 113.364 122.771 113.364C122.203 113.364 121.729 113.508 121.35 113.795C120.975 114.083 120.693 114.47 120.504 114.955C120.318 115.439 120.225 115.977 120.225 116.568C120.225 117.174 120.32 117.71 120.509 118.176C120.703 118.638 120.987 119.002 121.362 119.267C121.741 119.528 122.21 119.659 122.771 119.659ZM132.589 121.182C131.801 121.182 131.11 120.994 130.515 120.619C129.924 120.244 129.462 119.72 129.129 119.045C128.799 118.371 128.634 117.583 128.634 116.682C128.634 115.773 128.799 114.979 129.129 114.301C129.462 113.623 129.924 113.097 130.515 112.722C131.11 112.347 131.801 112.159 132.589 112.159C133.377 112.159 134.066 112.347 134.657 112.722C135.252 113.097 135.714 113.623 136.044 114.301C136.377 114.979 136.544 115.773 136.544 116.682C136.544 117.583 136.377 118.371 136.044 119.045C135.714 119.72 135.252 120.244 134.657 120.619C134.066 120.994 133.377 121.182 132.589 121.182ZM132.589 119.977C133.188 119.977 133.68 119.824 134.066 119.517C134.453 119.21 134.739 118.807 134.924 118.307C135.11 117.807 135.203 117.265 135.203 116.682C135.203 116.098 135.11 115.555 134.924 115.051C134.739 114.547 134.453 114.14 134.066 113.83C133.68 113.519 133.188 113.364 132.589 113.364C131.991 113.364 131.498 113.519 131.112 113.83C130.725 114.14 130.439 114.547 130.254 115.051C130.068 115.555 129.975 116.098 129.975 116.682C129.975 117.265 130.068 117.807 130.254 118.307C130.439 118.807 130.725 119.21 131.112 119.517C131.498 119.824 131.991 119.977 132.589 119.977Z" fill="black"/>
</svg>
